<svg xmlns="http://www.w3.org/2000/svg" xmlns:xlink="http://www.w3.org/1999/xlink" width="500" zoomAndPan="magnify" viewBox="0 0 375 374.999991" height="500" preserveAspectRatio="xMidYMid meet" version="1.0"><defs><g/><clipPath id="4e9d0a1dfb"><path d="M 99.058594 99 L 276.058594 99 L 276.058594 199 L 99.058594 199 Z M 99.058594 99 " clip-rule="nonzero"/></clipPath></defs><g clip-path="url(#4e9d0a1dfb)"><path fill="#dbfe52" d="M 182.824219 181.054688 L 189.253906 188.027344 C 173.015625 202.691406 147.828125 201.574219 132.976562 185.472656 L 99.058594 148.703125 L 128.546875 121.808594 C 144.777344 106.949219 170.117188 108.011719 185.039062 124.183594 L 198.46875 138.746094 L 191.46875 145.152344 L 178.039062 130.589844 C 166.667969 118.265625 147.351562 117.453125 134.976562 128.78125 L 112.746094 149.136719 C 112.632812 149.238281 112.625 149.414062 112.726562 149.53125 L 139.972656 179.0625 C 151.28125 191.316406 170.445312 192.183594 182.824219 181.054688 Z M 211.90625 153.304688 L 198.472656 138.742188 L 191.472656 145.148438 L 204.902344 159.710938 C 212.3125 167.738281 224.890625 168.265625 232.953125 160.890625 L 247.566406 147.507812 L 227.324219 125.5625 C 219.984375 117.605469 207.558594 117.027344 199.492188 124.207031 L 205.925781 131.179688 C 210.132812 127.535156 216.53125 127.859375 220.328125 131.972656 L 233.949219 146.738281 C 234.050781 146.851562 234.042969 147.03125 233.933594 147.132812 L 226.519531 153.917969 C 222.324219 157.761719 215.765625 157.484375 211.90625 153.304688 Z M 242.148438 111.996094 C 227.292969 95.890625 202.105469 94.773438 185.867188 109.4375 L 192.296875 116.414062 C 204.679688 105.28125 223.839844 106.148438 235.148438 118.40625 L 262.390625 147.9375 C 262.496094 148.050781 262.488281 148.226562 262.371094 148.332031 L 240.140625 168.6875 C 227.769531 180.011719 208.453125 179.203125 197.082031 166.875 L 183.648438 152.316406 L 170.21875 137.753906 C 162.8125 129.722656 150.230469 129.195312 142.171875 136.574219 L 127.554688 149.953125 L 147.796875 171.898438 C 155.140625 179.859375 167.5625 180.4375 175.632812 173.257812 L 169.199219 166.28125 C 164.996094 169.929688 158.59375 169.605469 154.800781 165.488281 L 141.179688 150.726562 C 141.074219 150.609375 141.082031 150.433594 141.199219 150.332031 L 148.609375 143.542969 C 152.808594 139.695312 159.363281 139.972656 163.226562 144.160156 L 176.65625 158.722656 L 179.28125 156.316406 L 176.65625 158.722656 L 190.089844 173.28125 C 205.003906 189.453125 230.347656 190.515625 246.578125 175.65625 L 276.066406 148.761719 Z M 242.148438 111.996094 " fill-opacity="1" fill-rule="nonzero"/></g><g fill="#dbfe52" fill-opacity="1"><g transform="translate(74.392698, 263.222356)"><g><path d="M 19.433594 1.179688 C 28.582031 1.179688 35.09375 -4.246094 36.273438 -12.78125 L 30.707031 -13.773438 C 29.808594 -7.78125 25.421875 -3.914062 19.480469 -3.914062 C 12.121094 -3.914062 7.453125 -8.914062 7.40625 -16.699219 C 7.40625 -24.527344 11.699219 -29.480469 18.488281 -29.480469 C 23.441406 -29.480469 27.027344 -26.320312 27.921875 -21.226562 L 33.394531 -22.59375 C 32.027344 -29.902344 26.179688 -34.621094 18.488281 -34.621094 C 8.066406 -34.621094 1.554688 -27.640625 1.554688 -16.699219 C 1.554688 -5.800781 8.488281 1.179688 19.433594 1.179688 Z M 19.433594 1.179688 "/></g></g></g><g fill="#dbfe52" fill-opacity="1"><g transform="translate(111.504684, 263.222356)"><g><path d="M 14.292969 0.941406 C 22.167969 0.941406 27.355469 -4.199219 27.355469 -11.980469 C 27.355469 -19.808594 22.167969 -24.953125 14.292969 -24.953125 C 6.414062 -24.953125 1.226562 -19.808594 1.226562 -11.980469 C 1.226562 -4.199219 6.414062 0.941406 14.292969 0.941406 Z M 14.292969 -3.585938 C 9.527344 -3.585938 6.507812 -6.886719 6.507812 -11.980469 C 6.507812 -17.074219 9.527344 -20.328125 14.292969 -20.328125 C 19.007812 -20.328125 22.074219 -17.074219 22.074219 -11.980469 C 22.074219 -6.886719 19.007812 -3.585938 14.292969 -3.585938 Z M 14.292969 -3.585938 "/></g></g></g><g fill="#dbfe52" fill-opacity="1"><g transform="translate(140.08138, 263.222356)"><g><path d="M 12.734375 0.847656 C 16.601562 0.847656 19.761719 -1.039062 21.601562 -4.339844 L 21.648438 -4.339844 L 22.355469 0 L 26.886719 0 L 26.886719 -34.855469 L 21.554688 -34.855469 L 21.554688 -19.667969 L 21.507812 -19.667969 C 19.621094 -22.96875 16.554688 -24.808594 12.6875 -24.808594 C 6.039062 -24.808594 1.226562 -19.527344 1.226562 -11.980469 C 1.226562 -4.433594 6.085938 0.847656 12.734375 0.847656 Z M 14.148438 -3.773438 C 9.8125 -3.773438 6.554688 -7.265625 6.554688 -11.980469 C 6.554688 -16.648438 9.765625 -20.1875 14.148438 -20.1875 C 18.535156 -20.1875 21.746094 -16.648438 21.746094 -11.980469 C 21.746094 -7.359375 18.535156 -3.773438 14.148438 -3.773438 Z M 14.148438 -3.773438 "/></g></g></g><g fill="#dbfe52" fill-opacity="1"><g transform="translate(169.082492, 263.222356)"><g><path d="M 15.046875 0.941406 C 20.28125 0.941406 24.808594 -1.507812 26.507812 -5.046875 L 22.96875 -7.214844 C 21.554688 -4.953125 18.585938 -3.253906 15.1875 -3.253906 C 10.613281 -3.253906 7.214844 -6.132812 6.746094 -10.425781 L 25.707031 -10.425781 C 25.847656 -10.988281 25.894531 -11.792969 25.894531 -12.453125 C 25.847656 -19.761719 21.082031 -24.953125 13.820312 -24.953125 C 6.414062 -24.953125 1.226562 -19.667969 1.226562 -12.167969 C 1.226562 -4.527344 6.980469 0.941406 15.046875 0.941406 Z M 6.746094 -14.054688 C 7.265625 -18.019531 10.046875 -20.753906 13.820312 -20.753906 C 17.5 -20.753906 20.046875 -18.300781 20.421875 -14.054688 Z M 6.746094 -14.054688 "/></g></g></g><g fill="#ffffff" fill-opacity="1"><g transform="translate(196.619257, 263.222356)"><g><path d="M 2.734375 0 L 8.585938 0 L 8.585938 -13.820312 L 21.839844 -13.820312 L 21.839844 -18.488281 L 8.585938 -18.488281 L 8.585938 -28.300781 L 24.667969 -28.300781 L 24.667969 -33.441406 L 2.734375 -33.441406 Z M 2.734375 0 "/></g></g></g><g fill="#ffffff" fill-opacity="1"><g transform="translate(222.177951, 263.222356)"><g><path d="M 2.121094 0 L 7.453125 0 L 7.453125 -34.855469 L 2.121094 -34.855469 Z M 2.121094 0 "/></g></g></g><g fill="#ffffff" fill-opacity="1"><g transform="translate(231.75067, 263.222356)"><g><path d="M 14.292969 0.941406 C 22.167969 0.941406 27.355469 -4.199219 27.355469 -11.980469 C 27.355469 -19.808594 22.167969 -24.953125 14.292969 -24.953125 C 6.414062 -24.953125 1.226562 -19.808594 1.226562 -11.980469 C 1.226562 -4.199219 6.414062 0.941406 14.292969 0.941406 Z M 14.292969 -3.585938 C 9.527344 -3.585938 6.507812 -6.886719 6.507812 -11.980469 C 6.507812 -17.074219 9.527344 -20.328125 14.292969 -20.328125 C 19.007812 -20.328125 22.074219 -17.074219 22.074219 -11.980469 C 22.074219 -6.886719 19.007812 -3.585938 14.292969 -3.585938 Z M 14.292969 -3.585938 "/></g></g></g><g fill="#ffffff" fill-opacity="1"><g transform="translate(260.327366, 263.222356)"><g><path d="M 8.066406 0 L 14.433594 0 L 20.09375 -18.535156 L 20.1875 -18.535156 L 25.988281 0 L 32.261719 0 L 39.902344 -24.007812 L 34.527344 -24.007812 L 29.007812 -4.859375 L 28.960938 -4.859375 L 22.875 -24.007812 L 17.359375 -24.007812 L 11.367188 -4.953125 L 11.320312 -4.953125 L 5.800781 -24.007812 L 0.378906 -24.007812 Z M 8.066406 0 "/></g></g></g></svg>